<?xml version="1.0" encoding="UTF-8" standalone="no"?>
<!-- Created with Inkscape (http://www.inkscape.org/) -->

<svg
   width="264.58334mm"
   height="31.169792mm"
   viewBox="0 0 264.58334 31.169792"
   version="1.1"
   id="svg1"
   inkscape:version="1.3.2 (091e20e, 2023-11-25, custom)"
   sodipodi:docname="Lotte Mart (2023).svg"
   xmlns:inkscape="http://www.inkscape.org/namespaces/inkscape"
   xmlns:sodipodi="http://sodipodi.sourceforge.net/DTD/sodipodi-0.dtd"
   xmlns="http://www.w3.org/2000/svg"
   xmlns:svg="http://www.w3.org/2000/svg">
  <sodipodi:namedview
     id="namedview1"
     pagecolor="#ffffff"
     bordercolor="#000000"
     borderopacity="0.25"
     inkscape:showpageshadow="2"
     inkscape:pageopacity="0.0"
     inkscape:pagecheckerboard="0"
     inkscape:deskcolor="#d1d1d1"
     inkscape:document-units="mm"
     inkscape:zoom="0.72782688"
     inkscape:cx="-140.14322"
     inkscape:cy="-138.08229"
     inkscape:window-width="1920"
     inkscape:window-height="1094"
     inkscape:window-x="-11"
     inkscape:window-y="-11"
     inkscape:window-maximized="1"
     inkscape:current-layer="layer1" />
  <defs
     id="defs1">
    <clipPath
       clipPathUnits="userSpaceOnUse"
       id="clipPath18670">
      <path
         d="M 319.713,85.792 H 596.432 V 466.989 H 319.713 Z"
         transform="translate(-560.52751,-100.82231)"
         id="path18670" />
    </clipPath>
    <clipPath
       clipPathUnits="userSpaceOnUse"
       id="clipPath18671">
      <path
         d="M 319.713,85.792 H 596.432 V 466.989 H 319.713 Z"
         transform="translate(-563.76226,-102.696)"
         id="path18671" />
    </clipPath>
    <clipPath
       clipPathUnits="userSpaceOnUse"
       id="clipPath18672">
      <path
         d="M 319.713,85.792 H 596.432 V 466.989 H 319.713 Z"
         transform="translate(-568.26676,-103.34381)"
         id="path18672" />
    </clipPath>
    <clipPath
       clipPathUnits="userSpaceOnUse"
       id="clipPath18673">
      <path
         d="M 319.713,85.792 H 596.432 V 466.989 H 319.713 Z"
         transform="translate(-572.99176,-100.72301)"
         id="path18673" />
    </clipPath>
    <clipPath
       clipPathUnits="userSpaceOnUse"
       id="clipPath18674">
      <path
         d="M 319.713,85.792 H 596.432 V 466.989 H 319.713 Z"
         transform="translate(-539.06551,-101.22551)"
         id="path18674" />
    </clipPath>
    <clipPath
       clipPathUnits="userSpaceOnUse"
       id="clipPath18675">
      <path
         d="M 319.713,85.792 H 596.432 V 466.989 H 319.713 Z"
         transform="translate(-541.56151,-104.181)"
         id="path18675" />
    </clipPath>
    <clipPath
       clipPathUnits="userSpaceOnUse"
       id="clipPath18676">
      <path
         d="M 319.713,85.792 H 596.432 V 466.989 H 319.713 Z"
         transform="translate(-545.90326,-104.181)"
         id="path18676" />
    </clipPath>
    <clipPath
       clipPathUnits="userSpaceOnUse"
       id="clipPath18677">
      <path
         d="M 319.713,85.792 H 596.432 V 466.989 H 319.713 Z"
         transform="translate(-534.50026,-101.62121)"
         id="path18677" />
    </clipPath>
    <clipPath
       clipPathUnits="userSpaceOnUse"
       id="clipPath18678">
      <path
         d="M 319.713,85.792 H 596.432 V 466.989 H 319.713 Z"
         transform="translate(-550.45126,-104.1855)"
         id="path18678" />
    </clipPath>
    <clipPath
       clipPathUnits="userSpaceOnUse"
       id="clipPath18679">
      <path
         d="M 319.713,85.792 H 596.432 V 466.989 H 319.713 Z"
         transform="translate(-529.94101,-100.3778)"
         id="path18679" />
    </clipPath>
    <clipPath
       clipPathUnits="userSpaceOnUse"
       id="clipPath18680">
      <path
         d="M 319.713,85.792 H 596.432 V 466.989 H 319.713 Z"
         transform="translate(-528.02326,-101.00441)"
         id="path18680" />
    </clipPath>
    <clipPath
       clipPathUnits="userSpaceOnUse"
       id="clipPath18681">
      <path
         d="M 319.713,85.792 H 596.432 V 466.989 H 319.713 Z"
         transform="translate(-528.67726,-104.3235)"
         id="path18681" />
    </clipPath>
  </defs>
  <g
     inkscape:label="Layer 1"
     inkscape:groupmode="layer"
     id="layer1"
     transform="translate(-142.08113,-185.20833)">
    <g
       id="g1">
      <path
         d="M 0,0 -0.203,3.053 -1.181,0 H -2.239 L -3.218,3.053 -3.421,0 h -1.027 l 0.431,4.564 h 1.23 L -1.71,1.22 -0.634,4.564 H 0.597 L 1.027,0 Z"
         style="fill:#ee2427;fill-opacity:1;fill-rule:nonzero;stroke:none"
         transform="matrix(5.3623143,0,0,-5.3623143,328.0945,211.34826)"
         clip-path="url(#clipPath18670)"
         id="path19073" />
      <path
         d="M 0,0 H 1.111 L 0.556,1.465 Z m 1.822,-1.874 -0.387,1.01 h -1.766 l -0.38,-1.01 h -1.105 l 1.803,4.565 h 1.137 l 1.803,-4.565 z"
         style="fill:#ee2427;fill-opacity:1;fill-rule:nonzero;stroke:none"
         transform="matrix(5.3623143,0,0,-5.3623143,345.44012,201.30089)"
         clip-path="url(#clipPath18671)"
         id="path19074" />
      <path
         d="M 0,0 H 0.68 C 0.799,0 0.912,0.008 1.02,0.023 1.129,0.039 1.223,0.068 1.306,0.111 1.388,0.153 1.451,0.213 1.498,0.289 1.545,0.365 1.569,0.465 1.569,0.59 1.569,0.71 1.545,0.81 1.498,0.888 1.451,0.965 1.388,1.025 1.306,1.068 1.223,1.111 1.129,1.141 1.02,1.156 0.912,1.171 0.799,1.179 0.68,1.179 H 0 Z M 1.71,-2.521 0.889,-0.864 H 0 V -2.358 L -0.785,-2.621 C -0.956,-2.68 -1.042,-2.627 -1.042,-2.463 V 2.043 H 0.993 C 1.23,2.043 1.448,2.014 1.649,1.955 1.849,1.898 2.022,1.808 2.17,1.686 2.317,1.566 2.432,1.415 2.513,1.234 2.595,1.054 2.636,0.839 2.636,0.59 2.636,0.274 2.567,0.014 2.431,-0.192 2.293,-0.399 2.109,-0.559 1.876,-0.671 l 0.943,-1.85 z"
         style="fill:#ee2427;fill-opacity:1;fill-rule:nonzero;stroke:none"
         transform="matrix(5.3623143,0,0,-5.3623143,369.59471,197.82718)"
         clip-path="url(#clipPath18672)"
         id="path19075" />
      <path
         d="M 0,0 C -0.171,-0.059 -0.257,-0.006 -0.257,0.157 V 3.8 h -1.385 v 0.864 h 3.83 V 3.8 H 0.785 V 0.263 Z"
         style="fill:#ee2427;fill-opacity:1;fill-rule:nonzero;stroke:none"
         transform="matrix(5.3623143,0,0,-5.3623143,394.93172,211.88073)"
         clip-path="url(#clipPath18673)"
         id="path19076" />
      <path
         d="m 0,0 c -0.687,0 -1.21,0.698 -1.21,1.557 0,0.861 0.523,1.557 1.21,1.557 0.69,0 1.212,-0.696 1.212,-1.557 C 1.212,0.698 0.69,0 0,0 m 0,3.541 c -1.436,0 -2.295,-0.888 -2.295,-1.984 0,-1.095 0.859,-1.983 2.295,-1.983 1.437,0 2.299,0.888 2.299,1.983 0,1.096 -0.862,1.984 -2.299,1.984"
         style="fill:#ee2427;fill-opacity:1;fill-rule:nonzero;stroke:none"
         transform="matrix(5.3623143,0,0,-5.3623143,213.00845,209.18618)"
         clip-path="url(#clipPath18674)"
         id="path19077" />
      <path
         d="M 0,0 H 1.511 V -3.216 H 2.65 V 0 H 3.928 V 0.439 H 0 Z"
         style="fill:#ee2427;fill-opacity:1;fill-rule:nonzero;stroke:none"
         transform="matrix(5.3623143,0,0,-5.3623143,226.39274,193.33793)"
         clip-path="url(#clipPath18675)"
         id="path19078" />
      <path
         d="M 0,0 H 1.276 V -3.216 H 2.414 V 0 H 3.929 V 0.439 H 0 Z"
         style="fill:#ee2427;fill-opacity:1;fill-rule:nonzero;stroke:none"
         transform="matrix(5.3623143,0,0,-5.3623143,249.67467,193.33793)"
         clip-path="url(#clipPath18676)"
         id="path19079" />
      <path
         d="m 0,0 v 2.999 h -1.093 v -3.221 c 0,-0.24 0.194,-0.434 0.436,-0.434 h 2.795 v 0.439 H 0.218 C 0.1,-0.217 0,-0.122 0,0"
         style="fill:#ee2427;fill-opacity:1;fill-rule:nonzero;stroke:none"
         transform="matrix(5.3623143,0,0,-5.3623143,188.52812,207.06437)"
         clip-path="url(#clipPath18677)"
         id="path19080" />
      <path
         d="M 0,0 V -2.786 C 0,-3.026 0.196,-3.22 0.436,-3.22 h 2.98 v 0.431 H 1.314 c -0.123,0 -0.22,0.097 -0.22,0.218 v 1.076 h 2.29 v 0.429 h -2.29 v 0.852 c 0,0.119 0.097,0.218 0.22,0.218 h 2.102 v 0.43 H 0.435 C 0.196,0.434 0,0.241 0,0"
         style="fill:#ee2427;fill-opacity:1;fill-rule:nonzero;stroke:none"
         transform="matrix(5.3623143,0,0,-5.3623143,274.06243,193.31376)"
         clip-path="url(#clipPath18678)"
         id="path19081" />
      <path
         d="m 0,0 c -0.658,-0.658 -1.735,-0.658 -2.394,0 l -1.215,1.216 c -0.658,0.658 -0.658,1.736 0,2.393 l 1.215,1.216 c 0.659,0.659 1.736,0.659 2.394,0 L 1.216,3.609 c 0.658,-0.657 0.658,-1.735 0,-2.393 z"
         style="fill:#ee2427;fill-opacity:1;fill-rule:nonzero;stroke:none"
         transform="matrix(5.3623143,0,0,-5.3623143,164.08002,213.73182)"
         clip-path="url(#clipPath18679)"
         id="path19082" />
      <path
         d="M 0,0 C -0.097,0 -0.175,0.076 -0.179,0.172 -0.181,0.22 -0.164,0.266 -0.133,0.302 -0.1,0.337 -0.056,0.358 -0.007,0.36 0.092,0.365 0.175,0.286 0.18,0.187 0.184,0.088 0.107,0.004 0.008,0 Z"
         style="fill:#ffffff;fill-opacity:1;fill-rule:nonzero;stroke:none"
         transform="matrix(5.3623143,0,0,-5.3623143,153.79644,210.3718)"
         clip-path="url(#clipPath18680)"
         id="path19083" />
      <path
         d="m 0,0 c -0.099,0 -0.177,-0.031 -0.242,-0.095 -0.138,-0.136 -0.21,-0.419 -0.203,-0.796 0.008,-0.464 0.118,-1.375 0.483,-1.843 0.06,-0.077 0.123,-0.138 0.189,-0.181 0.065,-0.043 0.137,-0.084 0.249,-0.084 0.031,0 0.064,0.003 0.098,0.01 0.209,0.049 0.472,0.283 0.666,0.592 0.03,0.048 0.081,0.076 0.138,0.076 0.03,0 0.059,-0.009 0.084,-0.025 0.037,-0.023 0.063,-0.059 0.072,-0.101 0.01,-0.041 0.002,-0.085 -0.021,-0.121 -0.246,-0.392 -0.572,-0.667 -0.87,-0.737 -0.001,0 -0.004,-10e-4 -0.008,-10e-4 -0.055,-0.011 -0.109,-0.016 -0.16,-0.016 -0.193,0 -0.329,0.074 -0.425,0.137 -0.096,0.064 -0.185,0.149 -0.266,0.252 -0.514,0.66 -0.55,1.898 -0.552,2.036 -0.005,0.33 0.042,0.776 0.299,1.031 0.125,0.125 0.283,0.188 0.468,0.188 h 0.03 C 0.214,0.322 0.372,0.259 0.497,0.134 0.754,-0.121 0.801,-0.567 0.796,-0.897 0.79,-1.239 0.727,-1.905 0.372,-2.5 0.343,-2.548 0.289,-2.579 0.233,-2.579 c -0.03,0 -0.058,0.008 -0.083,0.023 -0.076,0.046 -0.101,0.145 -0.055,0.221 0.249,0.417 0.369,0.876 0.378,1.444 C 0.48,-0.514 0.407,-0.231 0.27,-0.095 0.205,-0.031 0.127,0 0.028,0 Z"
         style="fill:#ffffff;fill-opacity:1;fill-rule:nonzero;stroke:none"
         transform="matrix(5.3623143,0,0,-5.3623143,157.30344,192.57381)"
         clip-path="url(#clipPath18681)"
         id="path19084" />
    </g>
  </g>
</svg>
